<?xml version="1.0" encoding="UTF-8" standalone="no"?>
<!-- Created with Inkscape (http://www.inkscape.org/) -->

<svg
   version="1.1"
   id="svg148"
   width="597.43359"
   height="512"
   viewBox="0 0 597.43358 512"
   sodipodi:docname="logotype.svg"
   inkscape:version="1.2.2 (732a01da63, 2022-12-09, custom)"
   xmlns:inkscape="http://www.inkscape.org/namespaces/inkscape"
   xmlns:sodipodi="http://sodipodi.sourceforge.net/DTD/sodipodi-0.dtd"
   xmlns="http://www.w3.org/2000/svg"
   xmlns:svg="http://www.w3.org/2000/svg">
  <sodipodi:namedview
     id="namedview33619"
     pagecolor="#505050"
     bordercolor="#ffffff"
     borderopacity="1"
     inkscape:showpageshadow="0"
     inkscape:pageopacity="0"
     inkscape:pagecheckerboard="1"
     inkscape:deskcolor="#505050"
     showgrid="false"
     inkscape:zoom="0.27441446"
     inkscape:cx="357.12404"
     inkscape:cy="614.03471"
     inkscape:window-width="1360"
     inkscape:window-height="737"
     inkscape:window-x="0"
     inkscape:window-y="0"
     inkscape:window-maximized="1"
     inkscape:current-layer="g156" />
  <defs
     id="defs152">
    <clipPath
       clipPathUnits="userSpaceOnUse"
       id="clipPath402">
      <path
         d="M 0,1080 H 1413.02 V 0 H 0 Z"
         id="path400" />
    </clipPath>
  </defs>
  <g
     id="g156"
     transform="matrix(1.3333333,0,0,-1.3333333,-1046.2897,1007.6809)"
     inkscape:label="logotype">
    <path
       id="text394"
       style="font-variant:normal;font-weight:normal;font-stretch:normal;font-size:33.3706px;font-family:Conneqt;-inkscape-font-specification:ConneqtRegular;writing-mode:lr-tb;fill:#ffffff;fill-opacity:1;fill-rule:nonzero;stroke:none;stroke-width:0.921429"
       d="m 1091.9785,396.72854 c -3.4331,0 -6.3691,-1.21912 -8.8085,-3.65839 -2.4393,-2.43929 -3.6599,-5.37537 -3.6599,-8.80843 0,-3.43306 1.2206,-6.38077 3.6599,-8.84263 2.4394,-2.43929 5.3754,-3.6584 8.8085,-3.6584 3.5686,0 6.4697,1.25249 8.7058,3.75952 2.0778,2.32635 3.117,5.24068 3.117,8.74151 0,0.60982 -0.021,1.07279 -0.067,1.389 h -10.944 v -4.13281 h 6.2684 c -0.4517,-1.581 -1.2878,-2.87998 -2.5073,-3.89635 -1.197,-0.99378 -2.7211,-1.49161 -4.573,-1.49161 -2.236,0 -4.1446,0.79099 -5.7257,2.37202 -1.581,1.60359 -2.3719,3.52374 -2.3719,5.75975 0,2.236 0.7909,4.14453 2.3719,5.72555 1.5811,1.58101 3.4897,2.37052 5.7257,2.37052 1.2874,0 2.4948,-0.29316 3.6241,-0.88039 1.152,-0.56465 2.1128,-1.35417 2.8807,-2.37053 l 3.59,2.47314 c -1.1745,1.6036 -2.6534,2.8561 -4.4378,3.75954 -1.7842,0.92602 -3.6695,1.38899 -5.657,1.38899 z m 63.9625,0 c -3.433,0 -6.3691,-1.21912 -8.8085,-3.65839 -2.4391,-2.43929 -3.6583,-5.37537 -3.6583,-8.80843 0,-3.43306 1.2192,-6.38077 3.6583,-8.84263 2.4394,-2.43929 5.3755,-3.6584 8.8085,-3.6584 3.4332,0 6.3692,1.21911 8.8085,3.6584 2.4618,2.46186 3.6926,5.40957 3.6926,8.84263 0,3.43306 -1.2308,6.36914 -3.6926,8.80843 -2.4393,2.43927 -5.3753,3.65839 -8.8085,3.65839 z m -248.70448,-0.16953 c -3.13944,0 -5.56756,-0.62119 -7.28409,-1.86341 -1.58102,-1.17447 -2.37202,-2.72161 -2.37202,-4.64142 0,-0.92602 0.18144,-1.76052 0.54282,-2.50585 0.38395,-0.74533 0.81357,-1.35638 1.28788,-1.83069 0.49688,-0.45171 1.19643,-0.90307 2.09986,-1.3548 0.90343,-0.45171 1.64796,-0.77825 2.23519,-0.98152 0.60982,-0.20327 1.45743,-0.47469 2.54155,-0.81347 0.0452,0 0.0786,-0.0116 0.10112,-0.0342 0.0452,-0.0225 0.08,-0.0342 0.10262,-0.0342 0.0452,0 0.0901,-0.0117 0.13533,-0.0342 0.94862,-0.29363 1.68301,-0.5418 2.20248,-0.74507 0.54206,-0.1807 1.11677,-0.42886 1.72659,-0.74507 0.60982,-0.29362 1.05105,-0.64338 1.32207,-1.04994 0.29363,-0.38395 0.44021,-0.82518 0.44021,-1.32207 0,-1.85204 -1.7837,-2.77801 -5.35228,-2.77801 -2.46186,0 -5.01481,0.72277 -7.65737,2.16827 l -2.20247,-3.48886 c 3.0491,-1.76171 6.27984,-2.64268 9.69031,-2.64268 1.82946,0 3.46657,0.20318 4.91207,0.60974 1.4455,0.42912 2.66463,1.18527 3.65841,2.2694 0.99378,1.08411 1.49161,2.46293 1.49161,4.13428 0,0.85827 -0.18143,1.64778 -0.54281,2.37053 -0.36138,0.72276 -0.7895,1.31056 -1.28638,1.76228 -0.47431,0.47431 -1.1521,0.92567 -2.03295,1.3548 -0.85826,0.45173 -1.60427,0.79136 -2.23669,1.01722 -0.60981,0.22586 -1.42257,0.49578 -2.43892,0.81198 -0.15811,0.0452 -0.38454,0.1134 -0.67815,0.20375 -0.88086,0.27102 -1.60363,0.50759 -2.16827,0.71085 -0.54207,0.20328 -1.10664,0.45294 -1.69388,0.74655 -0.56464,0.29363 -0.98263,0.63177 -1.25367,1.01573 -0.27103,0.38396 -0.40599,0.82371 -0.40599,1.32059 0,0.74535 0.418,1.34477 1.25368,1.7965 0.83568,0.45171 2.05479,0.67813 3.6584,0.67813 2.28117,0 4.68754,-0.70102 7.21716,-2.10134 l 2.13407,3.38773 c -3.0265,1.73912 -6.07582,2.60847 -9.14749,2.60847 z m 108.95498,0 c -3.1395,0 -5.5676,-0.62119 -7.2841,-1.86341 -1.581,-1.17447 -2.372,-2.72161 -2.372,-4.64142 0,-0.92602 0.1799,-1.76052 0.5413,-2.50585 0.3839,-0.74533 0.8136,-1.35638 1.2879,-1.83069 0.4968,-0.45171 1.1979,-0.90307 2.1013,-1.3548 0.9035,-0.45171 1.6481,-0.77825 2.2353,-0.98152 0.6098,-0.20327 1.4574,-0.47469 2.5415,-0.81347 0.045,0 0.078,-0.0116 0.1015,-0.0342 0.046,-0.0225 0.078,-0.0342 0.1015,-0.0342 0.046,0 0.091,-0.0117 0.1369,-0.0342 0.9487,-0.29363 1.6815,-0.5418 2.201,-0.74507 0.5421,-0.1807 1.1182,-0.42886 1.7281,-0.74507 0.6098,-0.29362 1.0511,-0.64338 1.322,-1.04994 0.2937,-0.38395 0.4402,-0.82518 0.4402,-1.32207 0,-1.85204 -1.7852,-2.77801 -5.3537,-2.77801 -2.4619,0 -5.0134,0.72277 -7.6559,2.16827 l -2.2025,-3.48886 c 3.0491,-1.76171 6.2784,-2.64268 9.6888,-2.64268 1.8295,0 3.468,0.20318 4.9136,0.60974 1.4456,0.42912 2.6647,1.18527 3.6585,2.2694 0.9937,1.08411 1.49,2.46293 1.49,4.13428 0,0.85827 -0.1799,1.64778 -0.5413,2.37053 -0.3613,0.72276 -0.791,1.31056 -1.2879,1.76228 -0.4742,0.47431 -1.1521,0.92567 -2.0329,1.3548 -0.8582,0.45173 -1.6028,0.79136 -2.2352,1.01722 -0.6098,0.22586 -1.4225,0.49578 -2.439,0.81198 -0.158,0.0452 -0.3845,0.1134 -0.6781,0.20375 -0.8809,0.27102 -1.6036,0.50759 -2.1683,0.71085 -0.542,0.20328 -1.1066,0.45294 -1.6938,0.74655 -0.5646,0.29363 -0.9826,0.63177 -1.2537,1.01573 -0.271,0.38396 -0.406,0.82371 -0.406,1.32059 0,0.74535 0.418,1.34477 1.2537,1.7965 0.8357,0.45171 2.0548,0.67813 3.6584,0.67813 2.2811,0 4.686,-0.70102 7.2156,-2.10134 l 2.1342,3.38773 c -3.0265,1.73912 -6.0744,2.60847 -9.1461,2.60847 z m 29.0338,0 c -3.1395,0 -5.5676,-0.62119 -7.2842,-1.86341 -1.581,-1.17447 -2.3719,-2.72161 -2.3719,-4.64142 0,-0.92602 0.1814,-1.76052 0.5428,-2.50585 0.3839,-0.74533 0.8135,-1.35638 1.2878,-1.83069 0.4968,-0.45171 1.1965,-0.90307 2.0999,-1.3548 0.9034,-0.45171 1.6495,-0.77825 2.2367,-0.98152 0.6098,-0.20327 1.456,-0.47469 2.54,-0.81347 0.045,0 0.078,-0.0116 0.1015,-0.0342 0.045,-0.0225 0.08,-0.0342 0.1025,-0.0342 0.045,0 0.09,-0.0117 0.1354,-0.0342 0.9486,-0.29363 1.683,-0.5418 2.2026,-0.74507 0.542,-0.1807 1.1181,-0.42886 1.728,-0.74507 0.6098,-0.29362 1.0495,-0.64338 1.3206,-1.04994 0.2936,-0.38395 0.4402,-0.82518 0.4402,-1.32207 0,-1.85204 -1.7838,-2.77801 -5.3523,-2.77801 -2.4619,0 -5.0149,0.72277 -7.6575,2.16827 l -2.2024,-3.48886 c 3.0492,-1.76171 6.2799,-2.64268 9.6904,-2.64268 1.8294,0 3.4665,0.20318 4.912,0.60974 1.4455,0.42912 2.6646,1.18527 3.6584,2.2694 0.9939,1.08411 1.4917,2.46293 1.4917,4.13428 0,0.85827 -0.1815,1.64778 -0.5428,2.37053 -0.3614,0.72276 -0.7896,1.31056 -1.2865,1.76228 -0.4742,0.47431 -1.1521,0.92567 -2.0328,1.3548 -0.8583,0.45173 -1.6044,0.79136 -2.2368,1.01722 -0.6097,0.22586 -1.4225,0.49578 -2.4389,0.81198 -0.1581,0.0452 -0.3846,0.1134 -0.6781,0.20375 -0.8809,0.27102 -1.6036,0.50759 -2.1683,0.71085 -0.5422,0.20328 -1.1067,0.45294 -1.6939,0.74655 -0.5647,0.29363 -0.9826,0.63177 -1.2536,1.01573 -0.2711,0.38396 -0.406,0.82371 -0.406,1.32059 0,0.74535 0.4179,1.34477 1.2536,1.7965 0.8358,0.45171 2.0549,0.67813 3.6584,0.67813 2.2812,0 4.6876,-0.70102 7.2171,-2.10134 l 2.1342,3.38773 c -3.0265,1.73912 -6.0759,2.60847 -9.1475,2.60847 z M 785.54403,396.0846 v -23.68147 h 19.07278 v 4.10009 H 789.9133 v 5.69134 h 12.16344 v 4.1001 H 789.9133 v 5.69135 h 14.70351 v 4.09859 z m 48.31026,0 v -23.68147 h 14.33173 c 1.85204,0 3.43255,0.65604 4.74253,1.96603 1.33258,1.33257 1.99875,2.93631 1.99875,4.81095 0,1.4229 -0.40639,2.6188 -1.21947,3.58999 -0.79051,0.9712 -1.63811,1.67222 -2.54155,2.10135 0.67757,0.42913 1.31038,1.06193 1.89761,1.8976 0.60982,0.83568 0.9146,1.79502 0.9146,2.87915 0,1.78428 -0.63281,3.29806 -1.89761,4.54028 -1.24223,1.26481 -2.75452,1.89612 -4.5388,1.89612 z m 31.5411,0 v -13.24609 c 0,-3.0491 1.08415,-5.65717 3.2524,-7.82542 2.16825,-2.16824 4.78942,-3.2524 7.86111,-3.2524 3.07169,0 5.69138,1.08416 7.85962,3.2524 2.16825,2.16825 3.25242,4.77632 3.25242,7.82542 v 13.24609 h -4.33655 v -13.24609 c 0,-1.85205 -0.66617,-3.43257 -1.99875,-4.74255 -1.30998,-1.30997 -2.90211,-1.96601 -4.77674,-1.96601 -1.85204,0 -3.44566,0.65604 -4.77823,1.96601 -1.30999,1.30998 -1.96454,2.8905 -1.96454,4.74255 v 13.24609 z m 62.40552,0 v -23.68147 h 4.37075 v 23.68147 z m 16.19364,0 v -23.68147 h 4.37075 v 16.26205 l 13.99265,-16.26205 h 3.184 v 23.68147 h -4.37074 v -16.26056 l -13.99118,16.26056 z m 33.43869,0 v -23.68147 h 19.07427 v 4.10009 H 981.804 v 5.69134 h 12.16196 v 4.1001 H 981.804 v 5.69135 h 14.70351 v 4.09859 z m 136.26056,0 v -23.68147 h 4.3708 v 7.28409 h 7.1488 l 5.4549,-7.28409 h 5.1485 l -6.0973,8.13178 c 1.4229,0.67757 2.5637,1.67176 3.422,2.98174 0.8582,1.30998 1.2863,2.76567 1.2863,4.36926 0,2.2586 -0.8128,4.19037 -2.439,5.79396 -1.6261,1.6036 -3.5797,2.40473 -5.8608,2.40473 z m 64.0311,0 v -13.24609 c 0,-3.0491 1.0841,-5.65717 3.2524,-7.82542 2.1682,-2.16824 4.7894,-3.2524 7.8611,-3.2524 3.0716,0 5.6914,1.08416 7.8596,3.2524 2.1682,2.16825 3.2524,4.77632 3.2524,7.82542 v 13.24609 h -4.3365 v -13.24609 c 0,-1.85205 -0.6661,-3.43257 -1.9987,-4.74255 -1.31,-1.30997 -2.9022,-1.96601 -4.7768,-1.96601 -1.852,0 -3.4457,0.65604 -4.7782,1.96601 -1.3101,1.30998 -1.9645,2.8905 -1.9645,4.74255 v 13.24609 z m 33.5741,0 v -23.68147 h 4.3707 v 6.33677 h 7.5547 c 2.4168,0 4.4717,0.84612 6.1658,2.54006 1.7165,1.69395 2.5757,3.73744 2.5757,6.13156 0,2.3941 -0.8592,4.43908 -2.5757,6.13302 -1.6941,1.69395 -3.749,2.54006 -6.1658,2.54006 z m -55.358,-3.72681 c 2.2361,0 4.1446,-0.78951 5.7256,-2.37052 1.6036,-1.58102 2.4062,-3.48955 2.4062,-5.72555 0,-2.23601 -0.8026,-4.15616 -2.4062,-5.75975 -1.581,-1.58103 -3.4895,-2.37202 -5.7256,-2.37202 -2.2361,0 -4.1444,0.79099 -5.7255,2.37202 -1.581,1.60359 -2.3705,3.52374 -2.3705,5.75975 0,2.236 0.7895,4.14453 2.3705,5.72555 1.5811,1.58101 3.4894,2.37052 5.7255,2.37052 z m -317.85128,-0.23645 h 8.57196 c 0.76793,0 1.42248,-0.28303 1.96454,-0.84768 0.56464,-0.54206 0.84618,-1.20823 0.84618,-1.99874 0,-0.76792 -0.26991,-1.42247 -0.81198,-1.96453 -0.54206,-0.51949 -1.20823,-0.77928 -1.99874,-0.77928 h -8.57196 z m 279.97488,-0.23646 h 7.9281 c 1.1293,0 2.0886,-0.39625 2.8791,-1.18675 0.7905,-0.76793 1.1868,-1.7055 1.1868,-2.81222 0,-1.1067 -0.3963,-2.04279 -1.1868,-2.81072 -0.7905,-0.76792 -1.7498,-1.15255 -2.8791,-1.15255 h -7.9281 z m 97.6051,0 h 7.4194 c 1.2422,0 2.3046,-0.44124 3.1855,-1.32208 0.8809,-0.88086 1.3206,-1.93164 1.3206,-3.15128 0,-1.21965 -0.4397,-2.26896 -1.3206,-3.1498 -0.8809,-0.85826 -1.9433,-1.28788 -3.1855,-1.28788 h -7.4194 z m -401.87119,-6.03043 v -3.2866 h 9.89256 v 3.2866 z m 24.29121,-3.15127 h 9.28282 c 0.88085,0 1.62538,-0.30479 2.23519,-0.9146 0.63241,-0.60983 0.94881,-1.35584 0.94881,-2.23668 0,-0.88086 -0.3164,-1.63701 -0.94881,-2.26941 -0.60981,-0.60982 -1.35434,-0.9146 -2.23519,-0.9146 h -9.28282 z"
       inkscape:label="slogan" />
    <g
       id="g33746"
       inkscape:label="name"
       style="fill:#ffffff">
      <path
         id="text390-3"
         style="font-variant:normal;font-weight:normal;font-stretch:normal;font-size:200.123px;font-family:Conneqt;-inkscape-font-specification:ConneqtRegular;writing-mode:lr-tb;fill:#ffffff;fill-opacity:1;fill-rule:nonzero;stroke:none;stroke-width:0.907148"
         d="m 784.71729,-568.62983 v 139.88526 h 60.23731 c 18.94496,0 35.15495,-6.80425 48.62988,-20.4126 13.47494,-13.74177 20.21192,-30.28517 20.21192,-49.63037 0,-19.34521 -6.73698,-35.82134 -20.21192,-49.42969 -13.34152,-13.60835 -29.55151,-20.4126 -48.62988,-20.4126 z m 25.81641,24.81445 h 33.61963 c 12.14078,0 22.48096,4.4031 31.01953,13.2085 8.67199,8.8054 13.00782,19.41172 13.00782,31.81934 0,12.40761 -4.33583,23.01393 -13.00782,31.81933 -8.53857,8.80541 -18.87875,13.2085 -31.01953,13.2085 H 810.5337 Z"
         transform="scale(1,-1)"
         inkscape:label="D1" />
      <path
         id="text390-35"
         style="font-variant:normal;font-weight:normal;font-stretch:normal;font-size:200.123px;font-family:Conneqt;-inkscape-font-specification:ConneqtRegular;writing-mode:lr-tb;display:inline;fill:#ffffff;fill-opacity:1;fill-rule:nonzero;stroke:none;stroke-width:0.907148"
         d="m 1006.9707,-571.81147 c -20.27909,0 -37.62239,7.20493 -52.03123,21.61377 -14.40884,14.40884 -21.61377,31.75214 -21.61377,52.03125 0,20.27911 7.20493,37.68968 21.61377,52.23194 14.40884,14.40884 31.75214,21.61377 52.03123,21.61377 20.9462,0 38.0906,-7.47108 51.4321,-22.41358 12.2742,-13.74176 18.4117,-30.88619 18.4117,-51.43213 0,-3.60221 -0.1331,-6.33678 -0.3999,-8.20459 h -64.6407 v 24.41455 h 37.0225 c -2.6683,9.33907 -7.6037,17.01048 -14.8081,23.01416 -7.071,5.87027 -16.0775,8.80518 -27.0176,8.80518 -13.20809,0 -24.48123,-4.66924 -33.8203,-14.0083 -9.33906,-9.47248 -14.0083,-20.81289 -14.0083,-34.021 0,-13.2081 4.66924,-24.48125 14.0083,-33.82031 9.33907,-9.47248 20.61221,-14.20899 33.8203,-14.20899 7.6047,0 14.7423,1.73433 21.4131,5.20313 6.8042,3.46879 12.4751,8.2053 17.0112,14.20898 l 21.2124,-14.80957 c -6.9376,-9.47248 -15.6765,-16.87628 -26.2163,-22.21289 -10.5398,-5.33661 -21.6798,-8.00537 -33.4204,-8.00537 z"
         transform="scale(1,-1)"
         inkscape:label="G" />
      <path
         id="text390-3-7"
         style="font-variant:normal;font-weight:normal;font-stretch:normal;font-size:200.123px;font-family:Conneqt;-inkscape-font-specification:ConneqtRegular;writing-mode:lr-tb;fill:#ffffff;fill-opacity:1;fill-rule:nonzero;stroke:none;stroke-width:0.907148"
         d="m 1103.7134,-568.62983 v 139.88526 h 60.2373 c 18.945,0 35.155,-6.80425 48.6299,-20.4126 13.4749,-13.74177 20.2119,-30.28517 20.2119,-49.63037 0,-19.34521 -6.737,-35.82134 -20.2119,-49.42969 -13.3415,-13.60835 -29.5515,-20.4126 -48.6299,-20.4126 z m 25.8149,24.81445 h 33.6211 c 12.1408,0 22.481,4.4031 31.0196,13.2085 8.672,8.8054 13.0078,19.41172 13.0078,31.81934 0,12.40761 -4.3358,23.01393 -13.0078,31.81933 -8.5386,8.80541 -18.8788,13.2085 -31.0196,13.2085 h -33.6211 z"
         transform="scale(1,-1)"
         inkscape:label="D2" />
    </g>
    <g
       id="g398"
       clip-path="url(#clipPath402)"
       transform="matrix(0.9071479,0,0,0.9071479,72.862659,70.173984)"
       inkscape:label="mark"
       style="fill:#ffffff">
      <g
         id="g404"
         transform="translate(1025.7305,596.8726)"
         style="fill:#ffffff">
        <path
           d="m 0,0 c -0.029,0.012 -6.729,-3.198 -14.892,-7.138 l -14.846,-7.155 14.858,-0.009 c 8.17,-0.011 21.546,-0.011 29.716,0 l 14.862,0.009 -9.418,4.542 C 15.098,-7.262 10.394,-4.998 9.837,-4.723 9.279,-4.456 6.845,-3.283 4.439,-2.119 2.025,-0.964 0.03,-0.009 0,0"
           style="fill:#ffffff;fill-opacity:1;fill-rule:nonzero;stroke:none"
           id="path406" />
      </g>
      <g
         id="g408"
         transform="translate(1043.6348,605.4448)"
         style="fill:#ffffff">
        <path
           d="m 0,0 c -0.049,0.043 -1.5,-0.637 -5.749,-2.684 -3.121,-1.505 -5.702,-2.756 -5.725,-2.772 -0.021,-0.028 5.745,-2.825 12.805,-6.23 7.077,-3.398 12.86,-6.183 12.87,-6.176 0.009,0.011 -3.171,4.026 -7.067,8.911 C 3.245,-4.064 0.025,-0.041 0,0"
           style="fill:#ffffff;fill-opacity:1;fill-rule:nonzero;stroke:none"
           id="path410" />
      </g>
      <g
         id="g412"
         transform="translate(1007.8257,605.4976)"
         style="fill:#ffffff">
        <path
           d="m 0,0 -7.134,-8.944 c -3.919,-4.925 -7.121,-8.949 -7.112,-8.96 0.012,-0.018 5.794,2.767 12.867,6.165 7.06,3.401 12.83,6.212 12.81,6.231 -0.029,0.015 -2.368,1.155 -5.207,2.525 -2.841,1.367 -5.409,2.594 -5.692,2.736 h -0.01 z"
           style="fill:#ffffff;fill-opacity:1;fill-rule:nonzero;stroke:none"
           id="path414" />
      </g>
      <g
         id="g416"
         transform="translate(1057.3818,612.1353)"
         style="fill:#ffffff">
        <path
           d="m 0,0 c -0.019,0 -1.972,-0.938 -4.339,-2.078 -2.367,-1.141 -4.295,-2.089 -4.295,-2.109 0.005,-0.023 3.037,-3.832 6.73,-8.471 3.687,-4.631 6.721,-8.416 6.731,-8.407 0.009,0.02 -1.05,4.704 -2.357,10.414 C 1.174,-4.931 0.083,-0.199 0.064,-0.123 0.054,-0.06 0.016,0 0,0"
           style="fill:#ffffff;fill-opacity:1;fill-rule:nonzero;stroke:none"
           id="path418" />
      </g>
      <g
         id="g420"
         transform="translate(994.0352,612.1353)"
         style="fill:#ffffff">
        <path
           d="m 0,0 c -0.02,0 -0.049,-0.064 -0.068,-0.144 -0.027,-0.074 -1.106,-4.806 -2.412,-10.518 -1.297,-5.709 -2.355,-10.383 -2.348,-10.393 0.011,-0.01 3.047,3.766 6.742,8.407 3.697,4.641 6.729,8.451 6.719,8.471 0,0.02 -1.932,0.967 -4.299,2.099 C 1.967,-0.928 0.02,0 0,0"
           style="fill:#ffffff;fill-opacity:1;fill-rule:nonzero;stroke:none"
           id="path422" />
      </g>
      <g
         id="g424"
         transform="translate(977.4092,620.0679)"
         style="fill:#ffffff">
        <path
           d="m 0,0 c 0.009,-0.047 1.438,-6.315 3.179,-13.924 1.736,-7.613 3.166,-13.841 3.177,-13.841 0.014,0 1.163,4.974 2.553,11.075 1.39,6.088 2.529,11.103 2.529,11.163 0.01,0.084 -0.957,0.558 -5.082,2.545 -2.797,1.356 -5.38,2.593 -5.73,2.767 C 0.123,0.02 -0.021,0.075 0,0"
           style="fill:#ffffff;fill-opacity:1;fill-rule:nonzero;stroke:none"
           id="path426" />
      </g>
      <g
         id="g428"
         transform="translate(1074.0039,620.1426)"
         style="fill:#ffffff">
        <path
           d="m 0,0 c 0,0.009 -2.585,-1.228 -5.729,-2.746 -4.636,-2.236 -5.706,-2.772 -5.706,-2.846 0,-0.06 1.144,-5.084 2.534,-11.173 1.386,-6.09 2.541,-11.069 2.55,-11.069 0.019,0 1.454,6.262 3.2,13.91 C -1.411,-6.268 0.01,-0.01 0,0"
           style="fill:#ffffff;fill-opacity:1;fill-rule:nonzero;stroke:none"
           id="path430" />
      </g>
      <g
         id="g432"
         transform="translate(1025.7202,627.8691)"
         style="fill:#ffffff">
        <path
           d="m 0,0 c -0.019,0.01 -3.239,-4.003 -7.155,-8.92 -3.919,-4.911 -7.129,-8.954 -7.138,-8.984 0,-0.025 3.189,-1.588 7.09,-3.471 3.911,-1.879 7.15,-3.417 7.193,-3.417 0.06,0 3.295,1.538 7.195,3.417 3.91,1.883 7.101,3.437 7.101,3.451 0,0.02 -3.21,4.063 -7.125,8.981 C 3.25,-4.033 0.02,-0.009 0,0"
           style="fill:#ffffff;fill-opacity:1;fill-rule:nonzero;stroke:none"
           id="path434" />
      </g>
      <g
         id="g436"
         transform="translate(1110.0093,637.3174)"
         style="fill:#ffffff">
        <path
           d="m 0,0 -14.754,-6.939 -14.841,-7.148 -3.663,-16.066 c -2.018,-8.841 -3.664,-16.084 -3.645,-16.094 0.009,-0.009 8.273,10.341 18.362,23.008 C -8.437,-10.583 -0.096,-0.125 0,0"
           style="fill:#ffffff;fill-opacity:1;fill-rule:nonzero;stroke:none"
           id="path438" />
      </g>
      <g
         id="g440"
         transform="translate(941.2759,637.5327)"
         style="fill:#ffffff">
        <path
           d="m 0,0 c -0.021,0 0,-0.035 0.033,-0.092 0.039,-0.046 8.384,-10.509 18.531,-23.24 10.158,-12.737 18.48,-23.14 18.491,-23.13 0.005,0.009 -1.633,7.233 -3.649,16.054 -2.006,8.826 -3.683,16.07 -3.708,16.094 -0.04,0.039 -6.72,3.269 -14.866,7.189 C 6.691,-3.209 0.019,0 0,0"
           style="fill:#ffffff;fill-opacity:1;fill-rule:nonzero;stroke:none"
           id="path442" />
      </g>
      <g
         id="g444"
         transform="translate(1084.8262,642.5425)"
         style="fill:#ffffff">
        <path
           d="m 0,0 -0.029,-0.113 c -0.02,-0.063 -0.635,-2.79 -1.381,-6.07 -0.749,-3.264 -1.366,-6.001 -1.385,-6.065 -0.03,-0.108 -0.009,-0.123 0.07,-0.098 0.044,0.009 3.417,1.632 7.469,3.579 4.057,1.965 9.809,4.724 12.762,6.144 2.953,1.419 5.373,2.593 5.393,2.605 C 22.911,-0.009 17.762,0 11.463,0 Z"
           style="fill:#ffffff;fill-opacity:1;fill-rule:nonzero;stroke:none"
           id="path446" />
      </g>
      <g
         id="g448"
         transform="translate(1067.6631,642.5425)"
         style="fill:#ffffff">
        <path
           d="m 0,0 c -6.317,0 -11.475,-0.009 -11.475,-0.039 0,-0.019 1.134,-5.033 2.536,-11.143 1.389,-6.115 2.547,-11.129 2.568,-11.149 0.014,-0.02 3.235,1.503 7.144,3.397 3.921,1.884 7.141,3.456 7.17,3.502 0.015,0.038 0.824,3.523 1.785,7.735 0.957,4.212 1.747,7.667 1.747,7.679 C 11.475,-0.009 6.312,0 0,0"
           style="fill:#ffffff;fill-opacity:1;fill-rule:nonzero;stroke:none"
           id="path450" />
      </g>
      <g
         id="g452"
         transform="translate(1043.9253,642.5425)"
         style="fill:#ffffff">
        <path
           d="m 0,0 h -6.546 l -4.017,-5.033 c -2.217,-2.776 -4.042,-5.079 -4.061,-5.104 -0.022,-0.038 3.189,-4.113 7.915,-10.029 4.362,-5.478 7.962,-9.957 7.981,-9.957 0.015,0.006 2.486,1.189 5.488,2.629 3.522,1.697 5.444,2.655 5.444,2.702 0,0.045 -1.246,5.538 -2.765,12.208 C 7.915,-5.906 6.647,-0.339 6.607,-0.215 L 6.552,0 Z"
           style="fill:#ffffff;fill-opacity:1;fill-rule:nonzero;stroke:none"
           id="path454" />
      </g>
      <g
         id="g456"
         transform="translate(1025.7104,642.5425)"
         style="fill:#ffffff">
        <path
           d="m 0,0 c -2.755,0 -4.536,-0.018 -4.526,-0.049 0.01,-0.024 1.026,-1.311 2.255,-2.864 1.24,-1.544 2.262,-2.817 2.271,-2.817 0.02,0 1.041,1.273 2.274,2.817 1.232,1.553 2.252,2.84 2.262,2.864 C 4.547,-0.018 2.728,0 0,0"
           style="fill:#ffffff;fill-opacity:1;fill-rule:nonzero;stroke:none"
           id="path458" />
      </g>
      <g
         id="g460"
         transform="translate(1000.9424,642.5425)"
         style="fill:#ffffff">
        <path
           d="m 0,0 -0.053,-0.215 c -0.03,-0.124 -1.297,-5.681 -2.821,-12.357 -1.523,-6.673 -2.766,-12.175 -2.766,-12.215 0,-0.043 1.987,-1.04 5.473,-2.718 l 5.483,-2.637 1.712,2.15 c 0.936,1.184 4.526,5.671 7.952,9.965 5.446,6.839 6.229,7.839 6.174,7.915 -0.029,0.058 -1.86,2.352 -4.053,5.102 L 13.116,0 Z"
           style="fill:#ffffff;fill-opacity:1;fill-rule:nonzero;stroke:none"
           id="path462" />
      </g>
      <g
         id="g464"
         transform="translate(983.7744,642.5425)"
         style="fill:#ffffff">
        <path
           d="m 0,0 c -6.316,0 -11.485,-0.009 -11.485,-0.018 0,-0.012 0.785,-3.467 1.752,-7.679 0.957,-4.212 1.76,-7.697 1.789,-7.735 0.02,-0.035 3.244,-1.618 7.154,-3.502 3.92,-1.894 7.14,-3.417 7.161,-3.397 0.018,0.02 1.173,5.034 2.564,11.149 1.39,6.12 2.54,11.133 2.54,11.152 C 11.475,-0.009 6.301,0 0,0"
           style="fill:#ffffff;fill-opacity:1;fill-rule:nonzero;stroke:none"
           id="path466" />
      </g>
      <g
         id="g468"
         transform="translate(966.6104,642.5522)"
         style="fill:#ffffff">
        <path
           d="m 0,0 -11.469,-0.01 h -11.465 l 0.316,-0.142 c 0.168,-0.083 5.961,-2.875 12.873,-6.208 l 12.565,-6.05 -0.029,0.167 c -0.022,0.089 -0.647,2.831 -1.392,6.089 -0.738,3.255 -1.366,5.973 -1.375,6.031 z"
           style="fill:#ffffff;fill-opacity:1;fill-rule:nonzero;stroke:none"
           id="path470" />
      </g>
      <g
         id="g472"
         transform="translate(1003.9277,655.2402)"
         style="fill:#ffffff">
        <path
           d="m 0,0 c -0.046,0.044 -0.075,0.034 -0.085,-0.021 -0.019,-0.038 -0.39,-1.635 -0.824,-3.559 -0.434,-1.913 -0.778,-3.496 -0.77,-3.5 0.022,-0.021 1.669,-0.021 3.675,-0.011 L 5.649,-7.08 2.848,-3.569 C 1.316,-1.648 0.028,-0.04 0,0"
           style="fill:#ffffff;fill-opacity:1;fill-rule:nonzero;stroke:none"
           id="path474" />
      </g>
      <g
         id="g476"
         transform="translate(1047.5811,655.249)"
         style="fill:#ffffff">
        <path
           d="M 0,0 C -0.017,0.016 -1.318,-1.562 -2.878,-3.525 L -5.717,-7.089 -2.073,-7.1 c 2.007,-0.009 3.663,0 3.674,0.011 0.01,0.005 -0.331,1.596 -0.769,3.53 C 0.388,-1.631 0.018,-0.029 0,0"
           style="fill:#ffffff;fill-opacity:1;fill-rule:nonzero;stroke:none"
           id="path478" />
      </g>
      <g
         id="g480"
         transform="translate(963.1333,657.5176)"
         style="fill:#ffffff">
        <path
           d="m 0,0 c -0.029,0 -4.413,-2.11 -9.752,-4.683 l -9.705,-4.674 10.794,-0.011 c 5.936,-0.01 10.812,0 10.822,0.011 C 2.18,-9.343 1.707,-7.228 1.121,-4.665 0.528,-2.1 0.031,0 0,0"
           style="fill:#ffffff;fill-opacity:1;fill-rule:nonzero;stroke:none"
           id="path482" />
      </g>
      <g
         id="g484"
         transform="translate(1088.2793,657.5278)"
         style="fill:#ffffff">
        <path
           d="m 0,0 c -0.016,0 -0.509,-2.1 -1.087,-4.655 -0.584,-2.568 -1.059,-4.679 -1.059,-4.699 0,-0.024 4.881,-0.034 10.838,-0.034 H 19.53 L 9.782,-4.693 C 4.422,-2.11 0.019,0 0,0"
           style="fill:#ffffff;fill-opacity:1;fill-rule:nonzero;stroke:none"
           id="path486" />
      </g>
      <g
         id="g488"
         transform="translate(991.2891,671.0488)"
         style="fill:#ffffff">
        <path
           d="m 0,0 c -0.02,0.02 -5.188,-2.461 -11.484,-5.488 -6.297,-3.033 -11.454,-5.543 -11.464,-5.576 -0.02,-0.04 0.575,-2.718 1.316,-5.958 l 1.342,-5.897 H 5.247 l 0.024,0.123 c 0.02,0.065 0.676,2.915 1.45,6.341 1.202,5.256 1.41,6.248 1.355,6.336 -0.029,0.054 -1.857,2.357 -4.053,5.104 C 1.84,-2.274 0.019,-0.01 0,0"
           style="fill:#ffffff;fill-opacity:1;fill-rule:nonzero;stroke:none"
           id="path490" />
      </g>
      <g
         id="g492"
         transform="translate(1060.144,671.0884)"
         style="fill:#ffffff">
        <path
           d="m 0,0 -3.314,-4.156 c -1.825,-2.295 -3.665,-4.592 -4.068,-5.105 -0.419,-0.523 -0.75,-0.966 -0.75,-1 0,-0.039 0.641,-2.9 1.429,-6.356 0.795,-3.458 1.442,-6.297 1.442,-6.311 0,-0.011 5.743,-0.031 12.77,-0.031 H 20.28 l 1.342,5.897 c 0.738,3.25 1.334,5.928 1.316,5.967 -0.009,0.034 -5.015,2.46 -11.125,5.404 C 5.708,-2.757 0.551,-0.276 0.35,-0.173 Z"
           style="fill:#ffffff;fill-opacity:1;fill-rule:nonzero;stroke:none"
           id="path494" />
      </g>
      <g
         id="g496"
         transform="translate(1092.3223,675.501)"
         style="fill:#ffffff">
        <path
           d="m 0,0 c 0,-0.03 -0.632,-2.835 -1.41,-6.233 -0.776,-3.398 -1.402,-6.184 -1.391,-6.193 0,0 4.64,-2.233 10.291,-4.95 5.65,-2.727 10.3,-4.96 10.321,-4.97 0.028,-0.021 0.028,0 0.009,0.039 -0.03,0.049 -4.024,5.064 -8.89,11.164 C 4.072,-5.049 0.077,-0.03 0.048,-0.01 0.02,0.015 0,0.023 0,0"
           style="fill:#ffffff;fill-opacity:1;fill-rule:nonzero;stroke:none"
           id="path498" />
      </g>
      <g
         id="g500"
         transform="translate(959.0615,675.5063)"
         style="fill:#ffffff">
        <path
           d="m 0,0 c -0.011,0 -3.994,-4.976 -8.852,-11.076 -4.867,-6.093 -8.879,-11.133 -8.915,-11.187 l -0.078,-0.11 0.285,0.124 c 0.148,0.079 4.798,2.313 10.326,4.971 5.522,2.662 10.048,4.842 10.059,4.847 0.005,0.009 -0.626,2.806 -1.406,6.223 C 0.645,-2.8 0,-0.005 0,0"
           style="fill:#ffffff;fill-opacity:1;fill-rule:nonzero;stroke:none"
           id="path502" />
      </g>
      <g
         id="g504"
         transform="translate(1048.4233,676.71)"
         style="fill:#ffffff">
        <path
           d="m 0,0 c -0.055,0.019 -0.055,-0.026 0,-0.282 0.04,-0.172 0.492,-2.169 1.015,-4.453 0.517,-2.278 0.956,-4.156 0.967,-4.167 0.005,-0.005 1.029,1.263 2.267,2.816 1.244,1.553 2.264,2.86 2.284,2.885 0.009,0.04 -1.203,0.655 -3.22,1.632 C 1.524,-0.721 0.04,-0.012 0,0"
           style="fill:#ffffff;fill-opacity:1;fill-rule:nonzero;stroke:none"
           id="path506" />
      </g>
      <g
         id="g508"
         transform="translate(1002.9893,676.7192)"
         style="fill:#ffffff">
        <path
           d="m 0,0 c -0.039,-0.009 -1.522,-0.71 -3.313,-1.579 -1.968,-0.946 -3.235,-1.591 -3.23,-1.631 0.019,-0.025 1.045,-1.332 2.283,-2.885 1.244,-1.553 2.263,-2.821 2.273,-2.816 0.009,0.011 0.455,1.924 0.986,4.245 0.527,2.328 0.981,4.326 1.01,4.449 C 0.05,-0.055 0.041,0 0,0"
           style="fill:#ffffff;fill-opacity:1;fill-rule:nonzero;stroke:none"
           id="path510" />
      </g>
      <g
         id="g512"
         transform="translate(1025.7305,687.6553)"
         style="fill:#ffffff">
        <path
           d="m 0,0 c -0.029,0.01 -3.692,-1.74 -8.14,-3.89 -4.454,-2.15 -8.107,-3.911 -8.128,-3.921 -0.013,-0.009 -0.926,-3.95 -2.016,-8.756 -1.095,-4.804 -1.997,-8.768 -2.007,-8.797 0,-0.038 2.521,-3.239 5.606,-7.11 l 5.608,-7.042 H 9.022 l 5.612,7.042 c 3.088,3.871 5.608,7.072 5.597,7.11 -0.008,0.029 -0.906,3.993 -1.997,8.797 -1.099,4.806 -1.997,8.747 -2.008,8.747 0,0.009 -3.642,1.76 -8.096,3.909 C 3.693,-1.771 0.03,-0.01 0,0"
           style="fill:#ffffff;fill-opacity:1;fill-rule:nonzero;stroke:none"
           id="path514" />
      </g>
      <g
         id="g516"
         transform="translate(1078.0088,693.4683)"
         style="fill:#ffffff">
        <path
           d="m 0,0 c -0.022,0 -1.126,-1.375 -2.472,-3.057 -1.345,-1.686 -4.56,-5.72 -7.145,-8.968 -2.589,-3.236 -4.69,-5.908 -4.668,-5.927 0.018,-0.015 4.673,-2.269 10.339,-4.995 l 10.305,-4.961 0.039,0.137 c 0.03,0.09 0.825,3.57 1.782,7.757 l 1.739,7.609 -2.268,2.849 C 6.398,-7.982 4.176,-5.187 2.695,-3.352 1.232,-1.509 0.01,0 0,0"
           style="fill:#ffffff;fill-opacity:1;fill-rule:nonzero;stroke:none"
           id="path518" />
      </g>
      <g
         id="g520"
         transform="translate(973.3838,693.478)"
         style="fill:#ffffff">
        <path
           d="m 0,0 -0.31,-0.38 c -0.173,-0.207 -2.396,-3.011 -4.961,-6.212 -2.558,-3.21 -4.639,-5.867 -4.619,-5.897 0.009,-0.04 0.804,-3.511 1.771,-7.736 0.954,-4.211 1.749,-7.668 1.758,-7.678 0.012,-0.01 4.662,2.218 10.321,4.946 5.67,2.727 10.321,4.98 10.34,4.995 0.015,0.02 -3.146,4.024 -7.036,8.899 -3.88,4.878 -7.111,8.921 -7.164,8.965 z"
           style="fill:#ffffff;fill-opacity:1;fill-rule:nonzero;stroke:none"
           id="path522" />
      </g>
      <g
         id="g524"
         transform="translate(1038.7573,693.8433)"
         style="fill:#ffffff">
        <path
           d="m 0,0 c -0.029,0.08 -0.492,-0.119 -3.294,-1.474 -1.799,-0.862 -3.284,-1.593 -3.302,-1.607 -0.021,-0.021 1.814,-0.932 4.076,-2.027 2.274,-1.09 4.127,-1.962 4.127,-1.933 0,0.04 -0.358,1.607 -0.782,3.51 C 0.392,-1.637 0.021,-0.044 0,0"
           style="fill:#ffffff;fill-opacity:1;fill-rule:nonzero;stroke:none"
           id="path526" />
      </g>
      <g
         id="g528"
         transform="translate(1012.7324,693.9233)"
         style="fill:#ffffff">
        <path
           d="m 0,0 c -0.039,0.008 -0.078,-0.021 -0.082,-0.07 -0.022,-0.054 -0.391,-1.657 -0.826,-3.559 -0.437,-1.899 -0.779,-3.473 -0.769,-3.492 0.01,-0.029 1.865,0.853 4.129,1.943 2.262,1.085 4.092,1.996 4.072,2.017 -0.028,0.014 -1.49,0.734 -3.26,1.588 C 1.504,-0.721 0.032,-0.021 0,0"
           style="fill:#ffffff;fill-opacity:1;fill-rule:nonzero;stroke:none"
           id="path530" />
      </g>
      <g
         id="g532"
         transform="translate(1066.8193,707.4326)"
         style="fill:#ffffff">
        <path
           d="m 0,0 c -0.049,0.011 -5.207,-2.465 -11.484,-5.493 -6.267,-3.016 -11.419,-5.497 -11.44,-5.508 -0.014,-0.009 0.618,-2.87 1.416,-6.365 0.803,-3.501 1.475,-6.381 1.504,-6.4 0.02,-0.026 2.659,-1.302 5.857,-2.845 3.19,-1.533 5.835,-2.796 5.873,-2.796 0.025,0.011 3.605,4.467 7.959,9.93 4.348,5.454 7.899,9.951 7.899,10.001 0,0.044 -1.686,2.194 -3.753,4.768 C 1.779,-2.12 0.044,0 0,0"
           style="fill:#ffffff;fill-opacity:1;fill-rule:nonzero;stroke:none"
           id="path534" />
      </g>
      <g
         id="g536"
         transform="translate(984.6128,707.4326)"
         style="fill:#ffffff">
        <path
           d="m 0,0 c -0.084,0.02 -0.815,-0.862 -3.852,-4.689 -2.066,-2.593 -3.757,-4.743 -3.757,-4.787 0,-0.05 3.561,-4.547 7.904,-10.001 4.346,-5.463 7.925,-9.919 7.965,-9.93 0.023,0 2.666,1.263 5.866,2.796 3.192,1.543 5.832,2.819 5.864,2.84 0.012,0.024 0.698,2.904 1.492,6.395 0.795,3.496 1.442,6.366 1.442,6.366 -0.011,0.009 -5.143,2.48 -11.42,5.498 C 5.236,-2.49 0.059,-0.009 0,0"
           style="fill:#ffffff;fill-opacity:1;fill-rule:nonzero;stroke:none"
           id="path538" />
      </g>
      <g
         id="g540"
         transform="translate(950.1455,714.627)"
         style="fill:#ffffff">
        <path
           d="m 0,0 c -0.009,0.029 -0.078,-0.217 -0.163,-0.548 -0.074,-0.335 -3.056,-13.396 -6.627,-29.037 -3.57,-15.63 -6.484,-28.431 -6.484,-28.442 0.009,0 4.64,5.795 10.291,12.885 5.65,7.081 10.28,12.925 10.29,12.974 0.011,0.044 -1.626,7.287 -3.634,16.103 C 1.657,-7.263 0.01,-0.029 0,0"
           style="fill:#ffffff;fill-opacity:1;fill-rule:nonzero;stroke:none"
           id="path542" />
      </g>
      <g
         id="g544"
         transform="translate(1101.29,714.6367)"
         style="fill:#ffffff">
        <path
           d="m 0,0 c -0.008,0.012 -1.666,-7.224 -3.684,-16.06 -2.014,-8.84 -3.651,-16.099 -3.647,-16.139 0.01,-0.037 4.641,-5.871 10.289,-12.953 5.657,-7.09 10.288,-12.885 10.296,-12.885 0,0.012 -2.972,13.058 -6.622,29.01 C 2.998,-13.077 0.016,-0.01 0.005,0 Z"
           style="fill:#ffffff;fill-opacity:1;fill-rule:nonzero;stroke:none"
           id="path546" />
      </g>
      <g
         id="g548"
         transform="translate(1095.8525,715.8403)"
         style="fill:#ffffff">
        <path
           d="m 0,0 c 0,0.01 -3.192,-3.97 -7.082,-8.846 -3.889,-4.872 -7.101,-8.905 -7.124,-8.964 l -0.07,-0.103 3.96,-4.962 c 2.176,-2.736 3.965,-4.959 3.974,-4.949 0.01,0.01 1.441,6.277 3.191,13.914 C -1.411,-6.268 0.01,-0.01 0,0"
           style="fill:#ffffff;fill-opacity:1;fill-rule:nonzero;stroke:none"
           id="path550" />
      </g>
      <g
         id="g552"
         transform="translate(955.5591,715.855)"
         style="fill:#ffffff">
        <path
           d="m 0,0 c -0.019,0 -0.019,-0.045 0,-0.094 0.021,-0.054 1.441,-6.277 3.161,-13.84 1.726,-7.566 3.156,-13.782 3.172,-13.831 0.028,-0.074 0.985,1.1 3.999,4.876 l 3.954,4.961 -0.065,0.103 c -0.03,0.059 -3.24,4.093 -7.13,8.954 C 3.201,-3.993 0.011,0 0,0"
           style="fill:#ffffff;fill-opacity:1;fill-rule:nonzero;stroke:none"
           id="path554" />
      </g>
      <g
         id="g556"
         transform="translate(1091.4873,719.3228)"
         style="fill:#ffffff">
        <path
           d="m 0,0 c -0.009,0.009 -4.393,-2.093 -9.727,-4.657 -5.351,-2.578 -9.723,-4.708 -9.723,-4.728 -0.011,-0.025 1.33,-1.731 2.983,-3.792 1.647,-2.066 3.008,-3.733 3.026,-3.713 0.021,0.019 3.048,3.827 6.74,8.452 C -3.006,-3.808 0,-0.012 0,0"
           style="fill:#ffffff;fill-opacity:1;fill-rule:nonzero;stroke:none"
           id="path558" />
      </g>
      <g
         id="g560"
         transform="translate(959.9136,719.3228)"
         style="fill:#ffffff">
        <path
           d="m 0,0 c 0,-0.012 3.034,-3.818 6.73,-8.453 3.694,-4.639 6.74,-8.426 6.771,-8.418 0.018,0 1.38,1.687 3.022,3.738 1.648,2.057 2.969,3.758 2.954,3.779 -0.02,0.019 -4.196,2.026 -9.27,4.476 C 5.123,-2.432 0.75,-0.331 0.483,-0.207 0.217,-0.075 0,0.009 0,0"
           style="fill:#ffffff;fill-opacity:1;fill-rule:nonzero;stroke:none"
           id="path562" />
      </g>
      <g
         id="g564"
         transform="translate(1060.4937,724.3608)"
         style="fill:#ffffff">
        <path
           d="m 0,0 0.079,-0.098 c 0.044,-0.045 1.834,-2.29 3.974,-4.976 l 3.9,-4.896 0.174,0.073 c 0.082,0.04 4.528,2.181 9.861,4.754 5.339,2.574 9.919,4.784 10.177,4.905 l 0.462,0.228 H 14.314 Z"
           style="fill:#ffffff;fill-opacity:1;fill-rule:nonzero;stroke:none"
           id="path566" />
      </g>
      <g
         id="g568"
         transform="translate(1037.4902,724.3608)"
         style="fill:#ffffff">
        <path
           d="m 0,0 0.026,-0.124 c 0.019,-0.068 1.168,-5.083 2.547,-11.153 1.381,-6.069 2.53,-11.051 2.556,-11.074 0.019,-0.021 4.669,2.184 10.329,4.92 5.672,2.726 10.312,4.981 10.321,5.01 0.01,0.025 -2.198,2.82 -4.916,6.218 L 15.94,-0.031 7.968,-0.02 Z"
           style="fill:#ffffff;fill-opacity:1;fill-rule:nonzero;stroke:none"
           id="path570" />
      </g>
      <g
         id="g572"
         transform="translate(1019.6157,724.3608)"
         style="fill:#ffffff">
        <path
           d="m 0,0 -0.029,-0.124 c -0.02,-0.068 -1.287,-5.626 -2.821,-12.346 -1.533,-6.73 -2.805,-12.279 -2.819,-12.318 -0.02,-0.065 1.228,-0.69 5.753,-2.869 3.181,-1.533 5.844,-2.802 5.908,-2.829 0.123,-0.046 0.842,0.285 6.01,2.776 4.67,2.252 5.873,2.848 5.854,2.913 -0.01,0.048 -1.278,5.597 -2.811,12.327 -1.533,6.72 -2.805,12.278 -2.815,12.346 L 12.205,0 Z"
           style="fill:#ffffff;fill-opacity:1;fill-rule:nonzero;stroke:none"
           id="path574" />
      </g>
      <g
         id="g576"
         transform="translate(998.0103,724.3608)"
         style="fill:#ffffff">
        <path
           d="m 0,0 -1.318,-1.657 c -0.724,-0.922 -2.954,-3.693 -4.931,-6.183 -1.986,-2.491 -3.612,-4.547 -3.612,-4.57 0,-0.031 4.633,-2.285 10.314,-5.021 5.672,-2.727 10.32,-4.941 10.34,-4.92 0.029,0.023 1.173,5.023 2.564,11.104 1.386,6.085 2.529,11.104 2.539,11.149 L 15.925,0 Z"
           style="fill:#ffffff;fill-opacity:1;fill-rule:nonzero;stroke:none"
           id="path578" />
      </g>
      <g
         id="g580"
         transform="translate(990.9297,724.3608)"
         style="fill:#ffffff">
        <path
           d="M 0,0 -14.314,-0.01 H -28.63 l 0.463,-0.228 c 0.268,-0.121 4.745,-2.282 9.972,-4.8 5.226,-2.521 9.663,-4.657 9.871,-4.755 l 0.37,-0.177 3.9,4.896 c 2.139,2.686 3.93,4.931 3.979,4.976 z"
           style="fill:#ffffff;fill-opacity:1;fill-rule:nonzero;stroke:none"
           id="path582" />
      </g>
      <g
         id="g584"
         transform="translate(1025.7104,750.9624)"
         style="fill:#ffffff">
        <path
           d="m 0,0 c -0.019,0 -1.099,-4.703 -2.41,-10.454 -1.318,-5.744 -2.387,-10.467 -2.387,-10.506 0,-0.05 0.991,-0.065 4.797,-0.065 3.807,0 4.803,0.015 4.803,0.065 0,0.039 -1.071,4.772 -2.386,10.506 C 1.119,-4.703 0.02,0 0,0"
           style="fill:#ffffff;fill-opacity:1;fill-rule:nonzero;stroke:none"
           id="path586" />
      </g>
      <g
         id="g588"
         transform="translate(1031.1729,752.2393)"
         style="fill:#ffffff">
        <path
           d="m 0,0 c -0.027,0.039 -0.049,0.011 -0.027,-0.073 0.009,-0.079 1.163,-5.104 2.548,-11.184 l 2.525,-11.045 h 6.356 c 5.073,0 6.351,0.015 6.322,0.065 -0.031,0.039 -4.004,5.044 -8.852,11.123 C 4.015,-5.025 0.031,-0.029 0,0"
           style="fill:#ffffff;fill-opacity:1;fill-rule:nonzero;stroke:none"
           id="path590" />
      </g>
      <g
         id="g592"
         transform="translate(1020.2681,752.2393)"
         style="fill:#ffffff">
        <path
           d="m 0,0 c 0,0.011 -3.984,-4.97 -8.851,-11.065 -4.868,-6.099 -8.861,-11.123 -8.89,-11.164 -0.03,-0.067 0.906,-0.073 6.316,-0.073 h 6.361 l 2.54,11.139 C -1.125,-5.025 0.01,-0.01 0,0"
           style="fill:#ffffff;fill-opacity:1;fill-rule:nonzero;stroke:none"
           id="path594" />
      </g>
      <g
         id="g596"
         transform="translate(1035.5293,755.667)"
         style="fill:#ffffff">
        <path
           d="M 0,0 C 0.039,-0.049 4.668,-5.858 10.29,-12.915 L 20.526,-25.73 h 16.499 c 9.083,0 16.504,0.006 16.493,0.016 -0.011,0.019 -11.804,5.699 -26.207,12.642 C 12.902,-6.135 0.862,-0.34 0.531,-0.188 H 0.522 C 0.132,0 -0.044,0.068 0,0"
           style="fill:#ffffff;fill-opacity:1;fill-rule:nonzero;stroke:none"
           id="path598" />
      </g>
      <g
         id="g600"
         transform="translate(1015.9429,755.7607)"
         style="fill:#ffffff">
        <path
           d="m 0,0 c -0.01,0 -11.903,-5.725 -26.444,-12.732 -14.531,-6.997 -26.583,-12.801 -26.784,-12.904 l -0.365,-0.181 16.508,-0.007 h 16.513 l 10.222,12.815 C -4.724,-5.952 -0.087,-0.143 -0.049,-0.094 -0.01,-0.035 0.009,0 0,0"
           style="fill:#ffffff;fill-opacity:1;fill-rule:nonzero;stroke:none"
           id="path602" />
      </g>
    </g>
  </g>
</svg>
