<?xml version="1.0" encoding="UTF-8" standalone="no"?>
<!-- Created with Inkscape (http://www.inkscape.org/) -->

<svg
   version="1.1"
   id="svg148"
   width="1534.2821"
   height="512"
   viewBox="0 0 1534.2821 512"
   sodipodi:docname="logotype.svg"
   inkscape:version="1.2.2 (732a01da63, 2022-12-09, custom)"
   xmlns:inkscape="http://www.inkscape.org/namespaces/inkscape"
   xmlns:sodipodi="http://sodipodi.sourceforge.net/DTD/sodipodi-0.dtd"
   xmlns="http://www.w3.org/2000/svg"
   xmlns:svg="http://www.w3.org/2000/svg">
  <sodipodi:namedview
     id="namedview33619"
     pagecolor="#505050"
     bordercolor="#ffffff"
     borderopacity="1"
     inkscape:showpageshadow="0"
     inkscape:pageopacity="0"
     inkscape:pagecheckerboard="1"
     inkscape:deskcolor="#505050"
     showgrid="false"
     inkscape:zoom="0.27441446"
     inkscape:cx="357.12404"
     inkscape:cy="614.03471"
     inkscape:window-width="1360"
     inkscape:window-height="737"
     inkscape:window-x="0"
     inkscape:window-y="0"
     inkscape:window-maximized="1"
     inkscape:current-layer="g156" />
  <defs
     id="defs152">
    <clipPath
       clipPathUnits="userSpaceOnUse"
       id="clipPath402">
      <path
         d="M 0,1080 H 1413.02 V 0 H 0 Z"
         id="path400" />
    </clipPath>
  </defs>
  <g
     id="g156"
     transform="matrix(1.3333333,0,0,-1.3333333,-1107.3089,1318.0801)"
     inkscape:label="logotype">
    <g
       id="g33746"
       inkscape:label="name"
       style="fill:#ffffff"
       transform="matrix(1.5908012,0,0,1.5908012,20.06554,4.2359961)">
      <path
         id="text390-3"
         style="font-variant:normal;font-weight:normal;font-stretch:normal;font-size:200.123px;font-family:Conneqt;-inkscape-font-specification:ConneqtRegular;writing-mode:lr-tb;fill:#ffffff;fill-opacity:1;fill-rule:nonzero;stroke:none;stroke-width:0.907148"
         d="m 784.71729,-568.62983 v 139.88526 h 60.23731 c 18.94496,0 35.15495,-6.80425 48.62988,-20.4126 13.47494,-13.74177 20.21192,-30.28517 20.21192,-49.63037 0,-19.34521 -6.73698,-35.82134 -20.21192,-49.42969 -13.34152,-13.60835 -29.55151,-20.4126 -48.62988,-20.4126 z m 25.81641,24.81445 h 33.61963 c 12.14078,0 22.48096,4.4031 31.01953,13.2085 8.67199,8.8054 13.00782,19.41172 13.00782,31.81934 0,12.40761 -4.33583,23.01393 -13.00782,31.81933 -8.53857,8.80541 -18.87875,13.2085 -31.01953,13.2085 H 810.5337 Z"
         transform="scale(1,-1)"
         inkscape:label="D1" />
      <path
         id="text390-35"
         style="font-variant:normal;font-weight:normal;font-stretch:normal;font-size:200.123px;font-family:Conneqt;-inkscape-font-specification:ConneqtRegular;writing-mode:lr-tb;display:inline;fill:#ffffff;fill-opacity:1;fill-rule:nonzero;stroke:none;stroke-width:0.907148"
         d="m 1006.9707,-571.81147 c -20.27909,0 -37.62239,7.20493 -52.03123,21.61377 -14.40884,14.40884 -21.61377,31.75214 -21.61377,52.03125 0,20.27911 7.20493,37.68968 21.61377,52.23194 14.40884,14.40884 31.75214,21.61377 52.03123,21.61377 20.9462,0 38.0906,-7.47108 51.4321,-22.41358 12.2742,-13.74176 18.4117,-30.88619 18.4117,-51.43213 0,-3.60221 -0.1331,-6.33678 -0.3999,-8.20459 h -64.6407 v 24.41455 h 37.0225 c -2.6683,9.33907 -7.6037,17.01048 -14.8081,23.01416 -7.071,5.87027 -16.0775,8.80518 -27.0176,8.80518 -13.20809,0 -24.48123,-4.66924 -33.8203,-14.0083 -9.33906,-9.47248 -14.0083,-20.81289 -14.0083,-34.021 0,-13.2081 4.66924,-24.48125 14.0083,-33.82031 9.33907,-9.47248 20.61221,-14.20899 33.8203,-14.20899 7.6047,0 14.7423,1.73433 21.4131,5.20313 6.8042,3.46879 12.4751,8.2053 17.0112,14.20898 l 21.2124,-14.80957 c -6.9376,-9.47248 -15.6765,-16.87628 -26.2163,-22.21289 -10.5398,-5.33661 -21.6798,-8.00537 -33.4204,-8.00537 z"
         transform="scale(1,-1)"
         inkscape:label="G" />
      <path
         id="text390-3-7"
         style="font-variant:normal;font-weight:normal;font-stretch:normal;font-size:200.123px;font-family:Conneqt;-inkscape-font-specification:ConneqtRegular;writing-mode:lr-tb;fill:#ffffff;fill-opacity:1;fill-rule:nonzero;stroke:none;stroke-width:0.907148"
         d="m 1103.7134,-568.62983 v 139.88526 h 60.2373 c 18.945,0 35.155,-6.80425 48.6299,-20.4126 13.4749,-13.74177 20.2119,-30.28517 20.2119,-49.63037 0,-19.34521 -6.737,-35.82134 -20.2119,-49.42969 -13.3415,-13.60835 -29.5515,-20.4126 -48.6299,-20.4126 z m 25.8149,24.81445 h 33.6211 c 12.1408,0 22.481,4.4031 31.0196,13.2085 8.672,8.8054 13.0078,19.41172 13.0078,31.81934 0,12.40761 -4.3358,23.01393 -13.0078,31.81933 -8.5386,8.80541 -18.8788,13.2085 -31.0196,13.2085 h -33.6211 z"
         transform="scale(1,-1)"
         inkscape:label="D2" />
    </g>
    <g
       id="g398"
       clip-path="url(#clipPath402)"
       transform="matrix(2.2171112,0,0,2.2171112,-1246.6666,-687.0454)"
       inkscape:label="mark"
       style="fill:#ffffff"
       inkscape:export-filename="../85c240e1/logotype-white.svg"
       inkscape:export-xdpi="96"
       inkscape:export-ydpi="96">
      <g
         id="g404"
         transform="translate(1025.7305,596.8726)"
         style="fill:#ffffff">
        <path
           d="m 0,0 c -0.029,0.012 -6.729,-3.198 -14.892,-7.138 l -14.846,-7.155 14.858,-0.009 c 8.17,-0.011 21.546,-0.011 29.716,0 l 14.862,0.009 -9.418,4.542 C 15.098,-7.262 10.394,-4.998 9.837,-4.723 9.279,-4.456 6.845,-3.283 4.439,-2.119 2.025,-0.964 0.03,-0.009 0,0"
           style="fill:#ffffff;fill-opacity:1;fill-rule:nonzero;stroke:none"
           id="path406" />
      </g>
      <g
         id="g408"
         transform="translate(1043.6348,605.4448)"
         style="fill:#ffffff">
        <path
           d="m 0,0 c -0.049,0.043 -1.5,-0.637 -5.749,-2.684 -3.121,-1.505 -5.702,-2.756 -5.725,-2.772 -0.021,-0.028 5.745,-2.825 12.805,-6.23 7.077,-3.398 12.86,-6.183 12.87,-6.176 0.009,0.011 -3.171,4.026 -7.067,8.911 C 3.245,-4.064 0.025,-0.041 0,0"
           style="fill:#ffffff;fill-opacity:1;fill-rule:nonzero;stroke:none"
           id="path410" />
      </g>
      <g
         id="g412"
         transform="translate(1007.8257,605.4976)"
         style="fill:#ffffff">
        <path
           d="m 0,0 -7.134,-8.944 c -3.919,-4.925 -7.121,-8.949 -7.112,-8.96 0.012,-0.018 5.794,2.767 12.867,6.165 7.06,3.401 12.83,6.212 12.81,6.231 -0.029,0.015 -2.368,1.155 -5.207,2.525 -2.841,1.367 -5.409,2.594 -5.692,2.736 h -0.01 z"
           style="fill:#ffffff;fill-opacity:1;fill-rule:nonzero;stroke:none"
           id="path414" />
      </g>
      <g
         id="g416"
         transform="translate(1057.3818,612.1353)"
         style="fill:#ffffff">
        <path
           d="m 0,0 c -0.019,0 -1.972,-0.938 -4.339,-2.078 -2.367,-1.141 -4.295,-2.089 -4.295,-2.109 0.005,-0.023 3.037,-3.832 6.73,-8.471 3.687,-4.631 6.721,-8.416 6.731,-8.407 0.009,0.02 -1.05,4.704 -2.357,10.414 C 1.174,-4.931 0.083,-0.199 0.064,-0.123 0.054,-0.06 0.016,0 0,0"
           style="fill:#ffffff;fill-opacity:1;fill-rule:nonzero;stroke:none"
           id="path418" />
      </g>
      <g
         id="g420"
         transform="translate(994.0352,612.1353)"
         style="fill:#ffffff">
        <path
           d="m 0,0 c -0.02,0 -0.049,-0.064 -0.068,-0.144 -0.027,-0.074 -1.106,-4.806 -2.412,-10.518 -1.297,-5.709 -2.355,-10.383 -2.348,-10.393 0.011,-0.01 3.047,3.766 6.742,8.407 3.697,4.641 6.729,8.451 6.719,8.471 0,0.02 -1.932,0.967 -4.299,2.099 C 1.967,-0.928 0.02,0 0,0"
           style="fill:#ffffff;fill-opacity:1;fill-rule:nonzero;stroke:none"
           id="path422" />
      </g>
      <g
         id="g424"
         transform="translate(977.4092,620.0679)"
         style="fill:#ffffff">
        <path
           d="m 0,0 c 0.009,-0.047 1.438,-6.315 3.179,-13.924 1.736,-7.613 3.166,-13.841 3.177,-13.841 0.014,0 1.163,4.974 2.553,11.075 1.39,6.088 2.529,11.103 2.529,11.163 0.01,0.084 -0.957,0.558 -5.082,2.545 -2.797,1.356 -5.38,2.593 -5.73,2.767 C 0.123,0.02 -0.021,0.075 0,0"
           style="fill:#ffffff;fill-opacity:1;fill-rule:nonzero;stroke:none"
           id="path426" />
      </g>
      <g
         id="g428"
         transform="translate(1074.0039,620.1426)"
         style="fill:#ffffff">
        <path
           d="m 0,0 c 0,0.009 -2.585,-1.228 -5.729,-2.746 -4.636,-2.236 -5.706,-2.772 -5.706,-2.846 0,-0.06 1.144,-5.084 2.534,-11.173 1.386,-6.09 2.541,-11.069 2.55,-11.069 0.019,0 1.454,6.262 3.2,13.91 C -1.411,-6.268 0.01,-0.01 0,0"
           style="fill:#ffffff;fill-opacity:1;fill-rule:nonzero;stroke:none"
           id="path430" />
      </g>
      <g
         id="g432"
         transform="translate(1025.7202,627.8691)"
         style="fill:#ffffff">
        <path
           d="m 0,0 c -0.019,0.01 -3.239,-4.003 -7.155,-8.92 -3.919,-4.911 -7.129,-8.954 -7.138,-8.984 0,-0.025 3.189,-1.588 7.09,-3.471 3.911,-1.879 7.15,-3.417 7.193,-3.417 0.06,0 3.295,1.538 7.195,3.417 3.91,1.883 7.101,3.437 7.101,3.451 0,0.02 -3.21,4.063 -7.125,8.981 C 3.25,-4.033 0.02,-0.009 0,0"
           style="fill:#ffffff;fill-opacity:1;fill-rule:nonzero;stroke:none"
           id="path434" />
      </g>
      <g
         id="g436"
         transform="translate(1110.0093,637.3174)"
         style="fill:#ffffff">
        <path
           d="m 0,0 -14.754,-6.939 -14.841,-7.148 -3.663,-16.066 c -2.018,-8.841 -3.664,-16.084 -3.645,-16.094 0.009,-0.009 8.273,10.341 18.362,23.008 C -8.437,-10.583 -0.096,-0.125 0,0"
           style="fill:#ffffff;fill-opacity:1;fill-rule:nonzero;stroke:none"
           id="path438" />
      </g>
      <g
         id="g440"
         transform="translate(941.2759,637.5327)"
         style="fill:#ffffff">
        <path
           d="m 0,0 c -0.021,0 0,-0.035 0.033,-0.092 0.039,-0.046 8.384,-10.509 18.531,-23.24 10.158,-12.737 18.48,-23.14 18.491,-23.13 0.005,0.009 -1.633,7.233 -3.649,16.054 -2.006,8.826 -3.683,16.07 -3.708,16.094 -0.04,0.039 -6.72,3.269 -14.866,7.189 C 6.691,-3.209 0.019,0 0,0"
           style="fill:#ffffff;fill-opacity:1;fill-rule:nonzero;stroke:none"
           id="path442" />
      </g>
      <g
         id="g444"
         transform="translate(1084.8262,642.5425)"
         style="fill:#ffffff">
        <path
           d="m 0,0 -0.029,-0.113 c -0.02,-0.063 -0.635,-2.79 -1.381,-6.07 -0.749,-3.264 -1.366,-6.001 -1.385,-6.065 -0.03,-0.108 -0.009,-0.123 0.07,-0.098 0.044,0.009 3.417,1.632 7.469,3.579 4.057,1.965 9.809,4.724 12.762,6.144 2.953,1.419 5.373,2.593 5.393,2.605 C 22.911,-0.009 17.762,0 11.463,0 Z"
           style="fill:#ffffff;fill-opacity:1;fill-rule:nonzero;stroke:none"
           id="path446" />
      </g>
      <g
         id="g448"
         transform="translate(1067.6631,642.5425)"
         style="fill:#ffffff">
        <path
           d="m 0,0 c -6.317,0 -11.475,-0.009 -11.475,-0.039 0,-0.019 1.134,-5.033 2.536,-11.143 1.389,-6.115 2.547,-11.129 2.568,-11.149 0.014,-0.02 3.235,1.503 7.144,3.397 3.921,1.884 7.141,3.456 7.17,3.502 0.015,0.038 0.824,3.523 1.785,7.735 0.957,4.212 1.747,7.667 1.747,7.679 C 11.475,-0.009 6.312,0 0,0"
           style="fill:#ffffff;fill-opacity:1;fill-rule:nonzero;stroke:none"
           id="path450" />
      </g>
      <g
         id="g452"
         transform="translate(1043.9253,642.5425)"
         style="fill:#ffffff">
        <path
           d="m 0,0 h -6.546 l -4.017,-5.033 c -2.217,-2.776 -4.042,-5.079 -4.061,-5.104 -0.022,-0.038 3.189,-4.113 7.915,-10.029 4.362,-5.478 7.962,-9.957 7.981,-9.957 0.015,0.006 2.486,1.189 5.488,2.629 3.522,1.697 5.444,2.655 5.444,2.702 0,0.045 -1.246,5.538 -2.765,12.208 C 7.915,-5.906 6.647,-0.339 6.607,-0.215 L 6.552,0 Z"
           style="fill:#ffffff;fill-opacity:1;fill-rule:nonzero;stroke:none"
           id="path454" />
      </g>
      <g
         id="g456"
         transform="translate(1025.7104,642.5425)"
         style="fill:#ffffff">
        <path
           d="m 0,0 c -2.755,0 -4.536,-0.018 -4.526,-0.049 0.01,-0.024 1.026,-1.311 2.255,-2.864 1.24,-1.544 2.262,-2.817 2.271,-2.817 0.02,0 1.041,1.273 2.274,2.817 1.232,1.553 2.252,2.84 2.262,2.864 C 4.547,-0.018 2.728,0 0,0"
           style="fill:#ffffff;fill-opacity:1;fill-rule:nonzero;stroke:none"
           id="path458" />
      </g>
      <g
         id="g460"
         transform="translate(1000.9424,642.5425)"
         style="fill:#ffffff">
        <path
           d="m 0,0 -0.053,-0.215 c -0.03,-0.124 -1.297,-5.681 -2.821,-12.357 -1.523,-6.673 -2.766,-12.175 -2.766,-12.215 0,-0.043 1.987,-1.04 5.473,-2.718 l 5.483,-2.637 1.712,2.15 c 0.936,1.184 4.526,5.671 7.952,9.965 5.446,6.839 6.229,7.839 6.174,7.915 -0.029,0.058 -1.86,2.352 -4.053,5.102 L 13.116,0 Z"
           style="fill:#ffffff;fill-opacity:1;fill-rule:nonzero;stroke:none"
           id="path462" />
      </g>
      <g
         id="g464"
         transform="translate(983.7744,642.5425)"
         style="fill:#ffffff">
        <path
           d="m 0,0 c -6.316,0 -11.485,-0.009 -11.485,-0.018 0,-0.012 0.785,-3.467 1.752,-7.679 0.957,-4.212 1.76,-7.697 1.789,-7.735 0.02,-0.035 3.244,-1.618 7.154,-3.502 3.92,-1.894 7.14,-3.417 7.161,-3.397 0.018,0.02 1.173,5.034 2.564,11.149 1.39,6.12 2.54,11.133 2.54,11.152 C 11.475,-0.009 6.301,0 0,0"
           style="fill:#ffffff;fill-opacity:1;fill-rule:nonzero;stroke:none"
           id="path466" />
      </g>
      <g
         id="g468"
         transform="translate(966.6104,642.5522)"
         style="fill:#ffffff">
        <path
           d="m 0,0 -11.469,-0.01 h -11.465 l 0.316,-0.142 c 0.168,-0.083 5.961,-2.875 12.873,-6.208 l 12.565,-6.05 -0.029,0.167 c -0.022,0.089 -0.647,2.831 -1.392,6.089 -0.738,3.255 -1.366,5.973 -1.375,6.031 z"
           style="fill:#ffffff;fill-opacity:1;fill-rule:nonzero;stroke:none"
           id="path470" />
      </g>
      <g
         id="g472"
         transform="translate(1003.9277,655.2402)"
         style="fill:#ffffff">
        <path
           d="m 0,0 c -0.046,0.044 -0.075,0.034 -0.085,-0.021 -0.019,-0.038 -0.39,-1.635 -0.824,-3.559 -0.434,-1.913 -0.778,-3.496 -0.77,-3.5 0.022,-0.021 1.669,-0.021 3.675,-0.011 L 5.649,-7.08 2.848,-3.569 C 1.316,-1.648 0.028,-0.04 0,0"
           style="fill:#ffffff;fill-opacity:1;fill-rule:nonzero;stroke:none"
           id="path474" />
      </g>
      <g
         id="g476"
         transform="translate(1047.5811,655.249)"
         style="fill:#ffffff">
        <path
           d="M 0,0 C -0.017,0.016 -1.318,-1.562 -2.878,-3.525 L -5.717,-7.089 -2.073,-7.1 c 2.007,-0.009 3.663,0 3.674,0.011 0.01,0.005 -0.331,1.596 -0.769,3.53 C 0.388,-1.631 0.018,-0.029 0,0"
           style="fill:#ffffff;fill-opacity:1;fill-rule:nonzero;stroke:none"
           id="path478" />
      </g>
      <g
         id="g480"
         transform="translate(963.1333,657.5176)"
         style="fill:#ffffff">
        <path
           d="m 0,0 c -0.029,0 -4.413,-2.11 -9.752,-4.683 l -9.705,-4.674 10.794,-0.011 c 5.936,-0.01 10.812,0 10.822,0.011 C 2.18,-9.343 1.707,-7.228 1.121,-4.665 0.528,-2.1 0.031,0 0,0"
           style="fill:#ffffff;fill-opacity:1;fill-rule:nonzero;stroke:none"
           id="path482" />
      </g>
      <g
         id="g484"
         transform="translate(1088.2793,657.5278)"
         style="fill:#ffffff">
        <path
           d="m 0,0 c -0.016,0 -0.509,-2.1 -1.087,-4.655 -0.584,-2.568 -1.059,-4.679 -1.059,-4.699 0,-0.024 4.881,-0.034 10.838,-0.034 H 19.53 L 9.782,-4.693 C 4.422,-2.11 0.019,0 0,0"
           style="fill:#ffffff;fill-opacity:1;fill-rule:nonzero;stroke:none"
           id="path486" />
      </g>
      <g
         id="g488"
         transform="translate(991.2891,671.0488)"
         style="fill:#ffffff">
        <path
           d="m 0,0 c -0.02,0.02 -5.188,-2.461 -11.484,-5.488 -6.297,-3.033 -11.454,-5.543 -11.464,-5.576 -0.02,-0.04 0.575,-2.718 1.316,-5.958 l 1.342,-5.897 H 5.247 l 0.024,0.123 c 0.02,0.065 0.676,2.915 1.45,6.341 1.202,5.256 1.41,6.248 1.355,6.336 -0.029,0.054 -1.857,2.357 -4.053,5.104 C 1.84,-2.274 0.019,-0.01 0,0"
           style="fill:#ffffff;fill-opacity:1;fill-rule:nonzero;stroke:none"
           id="path490" />
      </g>
      <g
         id="g492"
         transform="translate(1060.144,671.0884)"
         style="fill:#ffffff">
        <path
           d="m 0,0 -3.314,-4.156 c -1.825,-2.295 -3.665,-4.592 -4.068,-5.105 -0.419,-0.523 -0.75,-0.966 -0.75,-1 0,-0.039 0.641,-2.9 1.429,-6.356 0.795,-3.458 1.442,-6.297 1.442,-6.311 0,-0.011 5.743,-0.031 12.77,-0.031 H 20.28 l 1.342,5.897 c 0.738,3.25 1.334,5.928 1.316,5.967 -0.009,0.034 -5.015,2.46 -11.125,5.404 C 5.708,-2.757 0.551,-0.276 0.35,-0.173 Z"
           style="fill:#ffffff;fill-opacity:1;fill-rule:nonzero;stroke:none"
           id="path494" />
      </g>
      <g
         id="g496"
         transform="translate(1092.3223,675.501)"
         style="fill:#ffffff">
        <path
           d="m 0,0 c 0,-0.03 -0.632,-2.835 -1.41,-6.233 -0.776,-3.398 -1.402,-6.184 -1.391,-6.193 0,0 4.64,-2.233 10.291,-4.95 5.65,-2.727 10.3,-4.96 10.321,-4.97 0.028,-0.021 0.028,0 0.009,0.039 -0.03,0.049 -4.024,5.064 -8.89,11.164 C 4.072,-5.049 0.077,-0.03 0.048,-0.01 0.02,0.015 0,0.023 0,0"
           style="fill:#ffffff;fill-opacity:1;fill-rule:nonzero;stroke:none"
           id="path498" />
      </g>
      <g
         id="g500"
         transform="translate(959.0615,675.5063)"
         style="fill:#ffffff">
        <path
           d="m 0,0 c -0.011,0 -3.994,-4.976 -8.852,-11.076 -4.867,-6.093 -8.879,-11.133 -8.915,-11.187 l -0.078,-0.11 0.285,0.124 c 0.148,0.079 4.798,2.313 10.326,4.971 5.522,2.662 10.048,4.842 10.059,4.847 0.005,0.009 -0.626,2.806 -1.406,6.223 C 0.645,-2.8 0,-0.005 0,0"
           style="fill:#ffffff;fill-opacity:1;fill-rule:nonzero;stroke:none"
           id="path502" />
      </g>
      <g
         id="g504"
         transform="translate(1048.4233,676.71)"
         style="fill:#ffffff">
        <path
           d="m 0,0 c -0.055,0.019 -0.055,-0.026 0,-0.282 0.04,-0.172 0.492,-2.169 1.015,-4.453 0.517,-2.278 0.956,-4.156 0.967,-4.167 0.005,-0.005 1.029,1.263 2.267,2.816 1.244,1.553 2.264,2.86 2.284,2.885 0.009,0.04 -1.203,0.655 -3.22,1.632 C 1.524,-0.721 0.04,-0.012 0,0"
           style="fill:#ffffff;fill-opacity:1;fill-rule:nonzero;stroke:none"
           id="path506" />
      </g>
      <g
         id="g508"
         transform="translate(1002.9893,676.7192)"
         style="fill:#ffffff">
        <path
           d="m 0,0 c -0.039,-0.009 -1.522,-0.71 -3.313,-1.579 -1.968,-0.946 -3.235,-1.591 -3.23,-1.631 0.019,-0.025 1.045,-1.332 2.283,-2.885 1.244,-1.553 2.263,-2.821 2.273,-2.816 0.009,0.011 0.455,1.924 0.986,4.245 0.527,2.328 0.981,4.326 1.01,4.449 C 0.05,-0.055 0.041,0 0,0"
           style="fill:#ffffff;fill-opacity:1;fill-rule:nonzero;stroke:none"
           id="path510" />
      </g>
      <g
         id="g512"
         transform="translate(1025.7305,687.6553)"
         style="fill:#ffffff">
        <path
           d="m 0,0 c -0.029,0.01 -3.692,-1.74 -8.14,-3.89 -4.454,-2.15 -8.107,-3.911 -8.128,-3.921 -0.013,-0.009 -0.926,-3.95 -2.016,-8.756 -1.095,-4.804 -1.997,-8.768 -2.007,-8.797 0,-0.038 2.521,-3.239 5.606,-7.11 l 5.608,-7.042 H 9.022 l 5.612,7.042 c 3.088,3.871 5.608,7.072 5.597,7.11 -0.008,0.029 -0.906,3.993 -1.997,8.797 -1.099,4.806 -1.997,8.747 -2.008,8.747 0,0.009 -3.642,1.76 -8.096,3.909 C 3.693,-1.771 0.03,-0.01 0,0"
           style="fill:#ffffff;fill-opacity:1;fill-rule:nonzero;stroke:none"
           id="path514" />
      </g>
      <g
         id="g516"
         transform="translate(1078.0088,693.4683)"
         style="fill:#ffffff">
        <path
           d="m 0,0 c -0.022,0 -1.126,-1.375 -2.472,-3.057 -1.345,-1.686 -4.56,-5.72 -7.145,-8.968 -2.589,-3.236 -4.69,-5.908 -4.668,-5.927 0.018,-0.015 4.673,-2.269 10.339,-4.995 l 10.305,-4.961 0.039,0.137 c 0.03,0.09 0.825,3.57 1.782,7.757 l 1.739,7.609 -2.268,2.849 C 6.398,-7.982 4.176,-5.187 2.695,-3.352 1.232,-1.509 0.01,0 0,0"
           style="fill:#ffffff;fill-opacity:1;fill-rule:nonzero;stroke:none"
           id="path518" />
      </g>
      <g
         id="g520"
         transform="translate(973.3838,693.478)"
         style="fill:#ffffff">
        <path
           d="m 0,0 -0.31,-0.38 c -0.173,-0.207 -2.396,-3.011 -4.961,-6.212 -2.558,-3.21 -4.639,-5.867 -4.619,-5.897 0.009,-0.04 0.804,-3.511 1.771,-7.736 0.954,-4.211 1.749,-7.668 1.758,-7.678 0.012,-0.01 4.662,2.218 10.321,4.946 5.67,2.727 10.321,4.98 10.34,4.995 0.015,0.02 -3.146,4.024 -7.036,8.899 -3.88,4.878 -7.111,8.921 -7.164,8.965 z"
           style="fill:#ffffff;fill-opacity:1;fill-rule:nonzero;stroke:none"
           id="path522" />
      </g>
      <g
         id="g524"
         transform="translate(1038.7573,693.8433)"
         style="fill:#ffffff">
        <path
           d="m 0,0 c -0.029,0.08 -0.492,-0.119 -3.294,-1.474 -1.799,-0.862 -3.284,-1.593 -3.302,-1.607 -0.021,-0.021 1.814,-0.932 4.076,-2.027 2.274,-1.09 4.127,-1.962 4.127,-1.933 0,0.04 -0.358,1.607 -0.782,3.51 C 0.392,-1.637 0.021,-0.044 0,0"
           style="fill:#ffffff;fill-opacity:1;fill-rule:nonzero;stroke:none"
           id="path526" />
      </g>
      <g
         id="g528"
         transform="translate(1012.7324,693.9233)"
         style="fill:#ffffff">
        <path
           d="m 0,0 c -0.039,0.008 -0.078,-0.021 -0.082,-0.07 -0.022,-0.054 -0.391,-1.657 -0.826,-3.559 -0.437,-1.899 -0.779,-3.473 -0.769,-3.492 0.01,-0.029 1.865,0.853 4.129,1.943 2.262,1.085 4.092,1.996 4.072,2.017 -0.028,0.014 -1.49,0.734 -3.26,1.588 C 1.504,-0.721 0.032,-0.021 0,0"
           style="fill:#ffffff;fill-opacity:1;fill-rule:nonzero;stroke:none"
           id="path530" />
      </g>
      <g
         id="g532"
         transform="translate(1066.8193,707.4326)"
         style="fill:#ffffff">
        <path
           d="m 0,0 c -0.049,0.011 -5.207,-2.465 -11.484,-5.493 -6.267,-3.016 -11.419,-5.497 -11.44,-5.508 -0.014,-0.009 0.618,-2.87 1.416,-6.365 0.803,-3.501 1.475,-6.381 1.504,-6.4 0.02,-0.026 2.659,-1.302 5.857,-2.845 3.19,-1.533 5.835,-2.796 5.873,-2.796 0.025,0.011 3.605,4.467 7.959,9.93 4.348,5.454 7.899,9.951 7.899,10.001 0,0.044 -1.686,2.194 -3.753,4.768 C 1.779,-2.12 0.044,0 0,0"
           style="fill:#ffffff;fill-opacity:1;fill-rule:nonzero;stroke:none"
           id="path534" />
      </g>
      <g
         id="g536"
         transform="translate(984.6128,707.4326)"
         style="fill:#ffffff">
        <path
           d="m 0,0 c -0.084,0.02 -0.815,-0.862 -3.852,-4.689 -2.066,-2.593 -3.757,-4.743 -3.757,-4.787 0,-0.05 3.561,-4.547 7.904,-10.001 4.346,-5.463 7.925,-9.919 7.965,-9.93 0.023,0 2.666,1.263 5.866,2.796 3.192,1.543 5.832,2.819 5.864,2.84 0.012,0.024 0.698,2.904 1.492,6.395 0.795,3.496 1.442,6.366 1.442,6.366 -0.011,0.009 -5.143,2.48 -11.42,5.498 C 5.236,-2.49 0.059,-0.009 0,0"
           style="fill:#ffffff;fill-opacity:1;fill-rule:nonzero;stroke:none"
           id="path538" />
      </g>
      <g
         id="g540"
         transform="translate(950.1455,714.627)"
         style="fill:#ffffff">
        <path
           d="m 0,0 c -0.009,0.029 -0.078,-0.217 -0.163,-0.548 -0.074,-0.335 -3.056,-13.396 -6.627,-29.037 -3.57,-15.63 -6.484,-28.431 -6.484,-28.442 0.009,0 4.64,5.795 10.291,12.885 5.65,7.081 10.28,12.925 10.29,12.974 0.011,0.044 -1.626,7.287 -3.634,16.103 C 1.657,-7.263 0.01,-0.029 0,0"
           style="fill:#ffffff;fill-opacity:1;fill-rule:nonzero;stroke:none"
           id="path542" />
      </g>
      <g
         id="g544"
         transform="translate(1101.29,714.6367)"
         style="fill:#ffffff">
        <path
           d="m 0,0 c -0.008,0.012 -1.666,-7.224 -3.684,-16.06 -2.014,-8.84 -3.651,-16.099 -3.647,-16.139 0.01,-0.037 4.641,-5.871 10.289,-12.953 5.657,-7.09 10.288,-12.885 10.296,-12.885 0,0.012 -2.972,13.058 -6.622,29.01 C 2.998,-13.077 0.016,-0.01 0.005,0 Z"
           style="fill:#ffffff;fill-opacity:1;fill-rule:nonzero;stroke:none"
           id="path546" />
      </g>
      <g
         id="g548"
         transform="translate(1095.8525,715.8403)"
         style="fill:#ffffff">
        <path
           d="m 0,0 c 0,0.01 -3.192,-3.97 -7.082,-8.846 -3.889,-4.872 -7.101,-8.905 -7.124,-8.964 l -0.07,-0.103 3.96,-4.962 c 2.176,-2.736 3.965,-4.959 3.974,-4.949 0.01,0.01 1.441,6.277 3.191,13.914 C -1.411,-6.268 0.01,-0.01 0,0"
           style="fill:#ffffff;fill-opacity:1;fill-rule:nonzero;stroke:none"
           id="path550" />
      </g>
      <g
         id="g552"
         transform="translate(955.5591,715.855)"
         style="fill:#ffffff">
        <path
           d="m 0,0 c -0.019,0 -0.019,-0.045 0,-0.094 0.021,-0.054 1.441,-6.277 3.161,-13.84 1.726,-7.566 3.156,-13.782 3.172,-13.831 0.028,-0.074 0.985,1.1 3.999,4.876 l 3.954,4.961 -0.065,0.103 c -0.03,0.059 -3.24,4.093 -7.13,8.954 C 3.201,-3.993 0.011,0 0,0"
           style="fill:#ffffff;fill-opacity:1;fill-rule:nonzero;stroke:none"
           id="path554" />
      </g>
      <g
         id="g556"
         transform="translate(1091.4873,719.3228)"
         style="fill:#ffffff">
        <path
           d="m 0,0 c -0.009,0.009 -4.393,-2.093 -9.727,-4.657 -5.351,-2.578 -9.723,-4.708 -9.723,-4.728 -0.011,-0.025 1.33,-1.731 2.983,-3.792 1.647,-2.066 3.008,-3.733 3.026,-3.713 0.021,0.019 3.048,3.827 6.74,8.452 C -3.006,-3.808 0,-0.012 0,0"
           style="fill:#ffffff;fill-opacity:1;fill-rule:nonzero;stroke:none"
           id="path558" />
      </g>
      <g
         id="g560"
         transform="translate(959.9136,719.3228)"
         style="fill:#ffffff">
        <path
           d="m 0,0 c 0,-0.012 3.034,-3.818 6.73,-8.453 3.694,-4.639 6.74,-8.426 6.771,-8.418 0.018,0 1.38,1.687 3.022,3.738 1.648,2.057 2.969,3.758 2.954,3.779 -0.02,0.019 -4.196,2.026 -9.27,4.476 C 5.123,-2.432 0.75,-0.331 0.483,-0.207 0.217,-0.075 0,0.009 0,0"
           style="fill:#ffffff;fill-opacity:1;fill-rule:nonzero;stroke:none"
           id="path562" />
      </g>
      <g
         id="g564"
         transform="translate(1060.4937,724.3608)"
         style="fill:#ffffff">
        <path
           d="m 0,0 0.079,-0.098 c 0.044,-0.045 1.834,-2.29 3.974,-4.976 l 3.9,-4.896 0.174,0.073 c 0.082,0.04 4.528,2.181 9.861,4.754 5.339,2.574 9.919,4.784 10.177,4.905 l 0.462,0.228 H 14.314 Z"
           style="fill:#ffffff;fill-opacity:1;fill-rule:nonzero;stroke:none"
           id="path566" />
      </g>
      <g
         id="g568"
         transform="translate(1037.4902,724.3608)"
         style="fill:#ffffff">
        <path
           d="m 0,0 0.026,-0.124 c 0.019,-0.068 1.168,-5.083 2.547,-11.153 1.381,-6.069 2.53,-11.051 2.556,-11.074 0.019,-0.021 4.669,2.184 10.329,4.92 5.672,2.726 10.312,4.981 10.321,5.01 0.01,0.025 -2.198,2.82 -4.916,6.218 L 15.94,-0.031 7.968,-0.02 Z"
           style="fill:#ffffff;fill-opacity:1;fill-rule:nonzero;stroke:none"
           id="path570" />
      </g>
      <g
         id="g572"
         transform="translate(1019.6157,724.3608)"
         style="fill:#ffffff">
        <path
           d="m 0,0 -0.029,-0.124 c -0.02,-0.068 -1.287,-5.626 -2.821,-12.346 -1.533,-6.73 -2.805,-12.279 -2.819,-12.318 -0.02,-0.065 1.228,-0.69 5.753,-2.869 3.181,-1.533 5.844,-2.802 5.908,-2.829 0.123,-0.046 0.842,0.285 6.01,2.776 4.67,2.252 5.873,2.848 5.854,2.913 -0.01,0.048 -1.278,5.597 -2.811,12.327 -1.533,6.72 -2.805,12.278 -2.815,12.346 L 12.205,0 Z"
           style="fill:#ffffff;fill-opacity:1;fill-rule:nonzero;stroke:none"
           id="path574" />
      </g>
      <g
         id="g576"
         transform="translate(998.0103,724.3608)"
         style="fill:#ffffff">
        <path
           d="m 0,0 -1.318,-1.657 c -0.724,-0.922 -2.954,-3.693 -4.931,-6.183 -1.986,-2.491 -3.612,-4.547 -3.612,-4.57 0,-0.031 4.633,-2.285 10.314,-5.021 5.672,-2.727 10.32,-4.941 10.34,-4.92 0.029,0.023 1.173,5.023 2.564,11.104 1.386,6.085 2.529,11.104 2.539,11.149 L 15.925,0 Z"
           style="fill:#ffffff;fill-opacity:1;fill-rule:nonzero;stroke:none"
           id="path578" />
      </g>
      <g
         id="g580"
         transform="translate(990.9297,724.3608)"
         style="fill:#ffffff">
        <path
           d="M 0,0 -14.314,-0.01 H -28.63 l 0.463,-0.228 c 0.268,-0.121 4.745,-2.282 9.972,-4.8 5.226,-2.521 9.663,-4.657 9.871,-4.755 l 0.37,-0.177 3.9,4.896 c 2.139,2.686 3.93,4.931 3.979,4.976 z"
           style="fill:#ffffff;fill-opacity:1;fill-rule:nonzero;stroke:none"
           id="path582" />
      </g>
      <g
         id="g584"
         transform="translate(1025.7104,750.9624)"
         style="fill:#ffffff">
        <path
           d="m 0,0 c -0.019,0 -1.099,-4.703 -2.41,-10.454 -1.318,-5.744 -2.387,-10.467 -2.387,-10.506 0,-0.05 0.991,-0.065 4.797,-0.065 3.807,0 4.803,0.015 4.803,0.065 0,0.039 -1.071,4.772 -2.386,10.506 C 1.119,-4.703 0.02,0 0,0"
           style="fill:#ffffff;fill-opacity:1;fill-rule:nonzero;stroke:none"
           id="path586" />
      </g>
      <g
         id="g588"
         transform="translate(1031.1729,752.2393)"
         style="fill:#ffffff">
        <path
           d="m 0,0 c -0.027,0.039 -0.049,0.011 -0.027,-0.073 0.009,-0.079 1.163,-5.104 2.548,-11.184 l 2.525,-11.045 h 6.356 c 5.073,0 6.351,0.015 6.322,0.065 -0.031,0.039 -4.004,5.044 -8.852,11.123 C 4.015,-5.025 0.031,-0.029 0,0"
           style="fill:#ffffff;fill-opacity:1;fill-rule:nonzero;stroke:none"
           id="path590" />
      </g>
      <g
         id="g592"
         transform="translate(1020.2681,752.2393)"
         style="fill:#ffffff">
        <path
           d="m 0,0 c 0,0.011 -3.984,-4.97 -8.851,-11.065 -4.868,-6.099 -8.861,-11.123 -8.89,-11.164 -0.03,-0.067 0.906,-0.073 6.316,-0.073 h 6.361 l 2.54,11.139 C -1.125,-5.025 0.01,-0.01 0,0"
           style="fill:#ffffff;fill-opacity:1;fill-rule:nonzero;stroke:none"
           id="path594" />
      </g>
      <g
         id="g596"
         transform="translate(1035.5293,755.667)"
         style="fill:#ffffff">
        <path
           d="M 0,0 C 0.039,-0.049 4.668,-5.858 10.29,-12.915 L 20.526,-25.73 h 16.499 c 9.083,0 16.504,0.006 16.493,0.016 -0.011,0.019 -11.804,5.699 -26.207,12.642 C 12.902,-6.135 0.862,-0.34 0.531,-0.188 H 0.522 C 0.132,0 -0.044,0.068 0,0"
           style="fill:#ffffff;fill-opacity:1;fill-rule:nonzero;stroke:none"
           id="path598" />
      </g>
      <g
         id="g600"
         transform="translate(1015.9429,755.7607)"
         style="fill:#ffffff">
        <path
           d="m 0,0 c -0.01,0 -11.903,-5.725 -26.444,-12.732 -14.531,-6.997 -26.583,-12.801 -26.784,-12.904 l -0.365,-0.181 16.508,-0.007 h 16.513 l 10.222,12.815 C -4.724,-5.952 -0.087,-0.143 -0.049,-0.094 -0.01,-0.035 0.009,0 0,0"
           style="fill:#ffffff;fill-opacity:1;fill-rule:nonzero;stroke:none"
           id="path602" />
      </g>
    </g>
  </g>
</svg>
